<?xml version="1.0" encoding="UTF-8"?>
<svg xmlns="http://www.w3.org/2000/svg" xmlns:xlink="http://www.w3.org/1999/xlink" width="20pt" height="20pt" viewBox="0 0 28 28" version="1.1">
<g id="surface1">
<path style=" stroke:none;fill-rule:nonzero;fill:rgb(3, 3,4);fill-opacity:1;" d="M 21.96875 3.320312 C 19.902344 1.226562 17.148438 0.046875 14.210938 0 C 11.226562 -0.0429688 8.394531 1.097656 6.238281 3.222656 C 4.082031 5.34375 2.898438 8.15625 2.898438 11.136719 C 2.898438 13.765625 3.828125 16.3125 5.519531 18.316406 C 5.527344 18.324219 5.53125 18.332031 5.539062 18.339844 L 5.566406 18.371094 C 5.617188 18.429688 5.667969 18.488281 5.714844 18.542969 L 10.449219 23.960938 C 10.597656 24.132812 10.859375 24.148438 11.027344 24 C 11.199219 23.851562 11.214844 23.589844 11.066406 23.421875 L 6.332031 18 C 6.285156 17.949219 6.234375 17.894531 6.1875 17.835938 L 6.171875 17.820312 C 6.167969 17.816406 6.164062 17.8125 6.160156 17.808594 C 4.585938 15.945312 3.71875 13.578125 3.71875 11.136719 C 3.71875 8.375 4.816406 5.773438 6.8125 3.804688 C 8.808594 1.839844 11.429688 0.78125 14.199219 0.820312 C 16.917969 0.863281 19.472656 1.953125 21.386719 3.894531 C 23.300781 5.839844 24.355469 8.410156 24.355469 11.136719 C 24.355469 13.578125 23.488281 15.945312 21.910156 17.808594 C 21.902344 17.816406 21.894531 17.824219 21.886719 17.835938 L 14.457031 27.132812 C 14.4375 27.160156 14.40625 27.167969 14.386719 27.167969 C 14.367188 27.167969 14.339844 27.164062 14.316406 27.136719 L 12.144531 24.652344 C 11.992188 24.480469 11.734375 24.464844 11.5625 24.613281 C 11.394531 24.761719 11.375 25.019531 11.523438 25.191406 L 13.699219 27.675781 C 13.871094 27.875 14.121094 27.988281 14.386719 27.988281 C 14.390625 27.988281 14.398438 27.988281 14.40625 27.988281 C 14.675781 27.984375 14.929688 27.859375 15.097656 27.644531 L 22.542969 18.328125 C 22.546875 18.324219 22.550781 18.320312 22.550781 18.316406 C 24.242188 16.3125 25.175781 13.765625 25.175781 11.136719 C 25.175781 8.195312 24.035156 5.417969 21.96875 3.320312 Z M 21.96875 3.320312 "/>
<path style=" stroke:none;fill-rule:nonzero;fill:rgb(3, 3,4);fill-opacity:1;" d="M 10.800781 17.691406 L 11.804688 17.691406 C 12.265625 17.691406 12.640625 17.3125 12.640625 16.851562 L 12.640625 15.820312 L 15.429688 15.820312 L 15.429688 16.851562 C 15.429688 17.3125 15.804688 17.691406 16.269531 17.691406 L 17.273438 17.691406 C 17.734375 17.691406 18.109375 17.3125 18.109375 16.851562 L 18.109375 15.824219 C 18.617188 15.765625 19.011719 15.335938 19.011719 14.8125 L 19.011719 12.824219 C 19.011719 12.597656 18.828125 12.414062 18.601562 12.414062 C 18.375 12.414062 18.191406 12.597656 18.191406 12.824219 L 18.191406 13.507812 L 17.347656 13.507812 C 17 13.507812 16.691406 13.714844 16.558594 14.035156 L 16.167969 15.003906 L 11.910156 15.003906 L 11.515625 14.035156 C 11.386719 13.714844 11.078125 13.507812 10.730469 13.507812 L 9.878906 13.507812 L 9.878906 5.839844 C 10.609375 5.324219 12.101562 4.488281 14.113281 4.511719 C 16.050781 4.53125 17.492188 5.34375 18.191406 5.839844 L 18.191406 11.210938 C 18.191406 11.4375 18.375 11.621094 18.601562 11.621094 C 18.828125 11.621094 19.011719 11.4375 19.011719 11.210938 L 19.011719 8.285156 L 19.722656 8.285156 L 19.722656 9.570312 C 19.722656 9.796875 19.90625 9.980469 20.132812 9.980469 C 20.359375 9.980469 20.542969 9.796875 20.542969 9.570312 L 20.542969 8.242188 C 20.542969 7.8125 20.195312 7.464844 19.765625 7.464844 L 19.011719 7.464844 L 19.011719 5.804688 C 19.011719 5.5625 18.894531 5.335938 18.699219 5.195312 C 17.929688 4.640625 16.3125 3.714844 14.121094 3.691406 C 11.851562 3.664062 10.171875 4.621094 9.375 5.195312 C 9.175781 5.335938 9.058594 5.5625 9.058594 5.804688 L 9.058594 7.464844 L 8.308594 7.464844 C 7.882812 7.464844 7.53125 7.8125 7.53125 8.242188 L 7.53125 9.570312 C 7.53125 9.796875 7.714844 9.980469 7.941406 9.980469 C 8.167969 9.980469 8.351562 9.796875 8.351562 9.570312 L 8.351562 8.285156 L 9.058594 8.285156 L 9.058594 14.804688 C 9.058594 14.945312 9.089844 15.082031 9.144531 15.207031 C 9.28125 15.539062 9.59375 15.777344 9.960938 15.824219 L 9.960938 16.851562 C 9.960938 17.3125 10.335938 17.691406 10.800781 17.691406 Z M 11.820312 16.851562 C 11.820312 16.863281 11.8125 16.871094 11.804688 16.871094 L 10.800781 16.871094 C 10.789062 16.871094 10.78125 16.863281 10.78125 16.851562 L 10.78125 15.832031 L 11.820312 15.832031 Z M 17.289062 16.851562 C 17.289062 16.863281 17.28125 16.871094 17.273438 16.871094 L 16.269531 16.871094 C 16.257812 16.871094 16.25 16.863281 16.25 16.851562 L 16.25 15.832031 L 17.289062 15.832031 Z M 17.320312 14.34375 C 17.324219 14.332031 17.335938 14.328125 17.347656 14.328125 L 18.191406 14.328125 L 18.191406 14.804688 C 18.191406 14.914062 18.101562 15 17.992188 15 L 17.054688 15 Z M 9.882812 14.328125 L 10.730469 14.328125 C 10.742188 14.328125 10.75 14.332031 10.753906 14.34375 L 11.023438 15.003906 L 10.078125 15.003906 C 10 15.003906 9.929688 14.953125 9.898438 14.886719 C 9.890625 14.863281 9.882812 14.839844 9.882812 14.8125 Z M 9.882812 14.328125 "/>
<path style=" stroke:none;fill-rule:nonzero;fill:rgb(3, 3,4);fill-opacity:1;" d="M 17.785156 10.8125 L 17.785156 7.148438 C 17.785156 6.703125 17.425781 6.34375 16.980469 6.34375 L 11.15625 6.34375 C 10.710938 6.34375 10.347656 6.703125 10.347656 7.148438 L 10.347656 7.683594 C 10.347656 7.910156 10.53125 8.09375 10.757812 8.09375 C 10.984375 8.09375 11.167969 7.910156 11.167969 7.683594 L 11.167969 7.164062 L 16.964844 7.164062 L 16.964844 10.800781 L 11.167969 10.800781 L 11.167969 9.324219 C 11.167969 9.097656 10.984375 8.914062 10.757812 8.914062 C 10.53125 8.914062 10.347656 9.097656 10.347656 9.324219 L 10.347656 10.8125 C 10.347656 11.257812 10.710938 11.621094 11.15625 11.621094 L 16.980469 11.621094 C 17.425781 11.621094 17.785156 11.257812 17.785156 10.8125 Z M 17.785156 10.8125 "/>
<path style=" stroke:none;fill-rule:nonzero;fill:rgb(3, 3,4);fill-opacity:1;" d="M 12.425781 12.550781 C 12.199219 12.550781 12.015625 12.734375 12.015625 12.960938 C 12.015625 13.1875 12.199219 13.371094 12.425781 13.371094 L 15.597656 13.371094 C 15.824219 13.371094 16.007812 13.1875 16.007812 12.960938 C 16.007812 12.734375 15.824219 12.550781 15.597656 12.550781 Z M 12.425781 12.550781 "/>
<path style=" stroke:none;fill-rule:nonzero;fill:rgb(3, 3,4);fill-opacity:1;" d="M 14.667969 5.878906 C 14.894531 5.878906 15.078125 5.695312 15.078125 5.46875 C 15.078125 5.242188 14.894531 5.058594 14.667969 5.058594 L 13.355469 5.058594 C 13.128906 5.058594 12.945312 5.242188 12.945312 5.46875 C 12.945312 5.695312 13.128906 5.878906 13.355469 5.878906 Z M 14.667969 5.878906 "/>
</g>
</svg>
