<svg fill="#3e78da" height="512pt" viewBox="-71 0 512 512.00013" width="512pt" xmlns="http://www.w3.org/2000/svg"><path d="m320.222656 58.292969c-59.613281-64.058594-152.734375-73.753907-221.894531-36.773438-3.730469 1.992188-5.140625 6.628907-3.136719 10.371094 1.992188 3.726563 6.632813 5.136719 10.371094 3.136719 23.296875-12.457032 48.871094-19.046875 76.011719-19.597656 136.679687-2.714844 215.351562 143.167968 151.429687 255.792968l-118.375 208.457032c-6.039062 10.648437-16.953125 16.992187-29.183594 16.992187-22.9375 0-30.476562-19.914063-31.4375-20.964844-2.097656-3.679687-6.777343-4.976562-10.453124-2.882812-3.679688 2.085937-4.96875 6.765625-2.882813 10.441406.953125 1.019531 12.09375 28.734375 44.773437 28.734375 17.820313 0 33.710938-9.246094 42.519532-24.746094l118.363281-208.457031c42.457031-74.804687 27.367187-163.046875-26.105469-220.503906zm0 0"/><path d="m138.863281 449.046875-100.972656-177.824219c-43.722656-77.027344-20.898437-169.667968 43.179687-220.164062 3.332032-2.617188 3.894532-7.4375 1.277344-10.761719-2.617187-3.328125-7.4375-3.902344-10.757812-1.277344-69.449219 54.730469-94.867188 155.480469-47.023438 239.777344l100.972656 177.820313c1.410157 2.484374 4.003907 3.875 6.671876 3.875 5.851562 0 9.558593-6.339844 6.652343-11.445313zm0 0"/><path d="m185.445312 62.257812c38.105469 0 73.867188 16.972657 98.113282 46.574219 2.6875 3.269531 7.511718 3.75 10.789062 1.070313 3.273438-2.6875 3.75-7.507813 1.074219-10.789063-27.167969-33.15625-67.253906-52.183593-109.976563-52.183593-130.476562 0-192.417968 163.21875-93.15625 249.378906 53.546876 46.585937 132.9375 46.4375 186.316407 0 49.328125-42.820313 62.609375-112.863282 34.332031-170.046875-1.871094-3.789063-6.46875-5.34375-10.269531-3.472657-3.792969 1.878907-5.34375 6.476563-3.464844 10.269532 18.789063 38.019531 17.53125 84.007812-5.273437 121.59375v-67.265625c0-11.269531-9.164063-20.4375-20.433594-20.4375h-35.601563v-22.304688c0-10.609375-7.707031-19.242187-17.175781-19.242187h-70.542969c-9.472656 0-17.179687 8.632812-17.179687 19.242187v22.304688h-35.597656c-11.269532 0-20.4375 9.167969-20.4375 20.4375v67.265625c-50.910157-83.917969 9.710937-192.394532 108.484374-192.394532zm-37.121093 82.386719c0-2.484375 1.40625-3.914062 1.851562-3.914062h70.542969c.445312 0 1.851562 1.429687 1.851562 3.914062v22.304688h-74.246093zm-56.035157 42.742188c0-2.820313 2.289063-5.109375 5.109376-5.109375h176.097656c2.820312 0 5.109375 2.289062 5.109375 5.109375v45.398437c-6.800781 1.617188-6.417969.640625-68.15625.929688-.613281-13.253906-11.597657-23.847656-25.003907-23.847656s-24.390624 10.59375-25.003906 23.847656h-60.140625c-2.71875 0-5.394531-.308594-8.011719-.929688zm102.863282 77.492187c0 5.34375-4.351563 9.707032-9.707032 9.707032-5.351562 0-9.707031-4.363282-9.707031-9.707032 0-11.207031 0-21.070312 0-29.980468 0-5.320313 4.328125-9.707032 9.707031-9.707032 4.957032 0 9.042969 3.730469 9.636719 8.523438.101563.785156.070313-1.65625.070313 31.164062zm-102.863282-16.480468c2.636719.429687 5.3125.644531 8.011719.644531h60.113281v15.835937c0 13.804688 11.226563 25.035156 25.03125 25.035156 13.804688 0 25.035157-11.230468 25.035157-25.035156v-15.835937c61.703125-.203125 61.222656.476562 68.125-.644531v26.585937c-50.207031 54.410156-135.953125 54.582031-186.316407 0zm0 0"/></svg>